<?xml version="1.0" encoding="UTF-8" standalone="no"?>
<svg
   xmlns:dc="http://purl.org/dc/elements/1.1/"
   xmlns:cc="http://creativecommons.org/ns#"
   xmlns:rdf="http://www.w3.org/1999/02/22-rdf-syntax-ns#"
   xmlns:svg="http://www.w3.org/2000/svg"
   xmlns="http://www.w3.org/2000/svg"
   xmlns:sodipodi="http://sodipodi.sourceforge.net/DTD/sodipodi-0.dtd"
   xmlns:inkscape="http://www.inkscape.org/namespaces/inkscape"
   version="1.1"
   x="0px"
   y="0px"
   viewBox="0 0 100 125"
   enable-background="new 0 0 100 100"
   xml:space="preserve"
   id="svg4"
   sodipodi:docname="cloudless.svg"
   inkscape:version="0.92.3 (2405546, 2018-03-11)"><metadata
     id="metadata10"><rdf:RDF><cc:Work
         rdf:about=""><dc:format>image/svg+xml</dc:format><dc:type
           rdf:resource="http://purl.org/dc/dcmitype/StillImage" /><dc:title></dc:title></cc:Work></rdf:RDF></metadata><defs
     id="defs8" /><sodipodi:namedview
     pagecolor="#ffffff"
     bordercolor="#666666"
     borderopacity="1"
     objecttolerance="10"
     gridtolerance="10"
     guidetolerance="10"
     inkscape:pageopacity="0"
     inkscape:pageshadow="2"
     inkscape:window-width="1920"
     inkscape:window-height="1046"
     id="namedview6"
     showgrid="false"
     inkscape:zoom="1.888"
     inkscape:cx="229.03566"
     inkscape:cy="49.055647"
     inkscape:window-x="0"
     inkscape:window-y="34"
     inkscape:window-maximized="1"
     inkscape:current-layer="svg4" /><path
     d="m 219.75198,69.251955 c 1.78373,-10.191938 -0.12905,-20.564147 -5.5068,-29.524551 -5.91857,-9.861758 -15.32302,-16.827799 -26.48272,-19.613456 -3.42515,-0.855812 -6.93948,-1.290359 -10.44811,-1.290359 -15.95681,0 -30.46197,8.787724 -37.91758,22.678058 -3.56556,-2.436501 -7.78011,-3.747733 -12.18441,-3.747733 -5.86354,0 -11.35326,2.30367 -15.45964,6.487848 -3.43083,3.495355 -5.57131,8.089413 -6.08366,12.922565 -17.199724,1.03039 -31.198221,15.332501 -31.613792,32.765627 -0.214428,8.979389 3.08168,17.507136 9.279198,24.004476 6.199416,6.50113 14.556388,10.19763 23.539564,10.41206 l 107.30283,0.01 c 15.34768,0 27.83191,-12.48423 27.83191,-27.831909 0,-13.465276 -9.36649,-24.680013 -22.25679,-27.272116 z m -5.57512,49.413155 H 107.67101 l -0.66605,-0.01 C 99.545549,118.47915 92.60228,115.40696 87.454127,110.00643 82.305975,104.6059 79.567756,97.526001 79.74613,90.066587 80.104774,75.030106 92.625051,62.796365 107.65773,62.796365 l 0.67744,0.0076 c 0.77421,0.03606 1.53514,-0.284638 2.08545,-0.836836 0.5503,-0.554095 0.85012,-1.309335 0.82735,-2.091141 -0.12524,-4.318907 1.53894,-8.563808 4.56559,-11.647387 3.02854,-3.083578 7.0761,-4.783816 11.3969,-4.783816 4.20885,0 8.1805,1.622437 11.18438,4.571286 0.67175,0.658463 1.61864,0.946897 2.54277,0.760933 0.92033,-0.180271 1.69455,-0.804577 2.06457,-1.666081 5.90909,-13.727142 19.37626,-22.59836 34.31027,-22.59836 3.04373,0 6.09504,0.37762 9.06857,1.119576 9.68338,2.419423 17.843,8.463237 22.97977,17.021353 5.13677,8.558115 6.63207,18.60394 4.21454,28.287325 -0.20115,0.808371 -0.0399,1.664183 0.44403,2.343519 0.48389,0.677438 1.23913,1.110088 2.07028,1.182197 11.52783,1.001925 20.22257,10.484165 20.22257,22.055656 0.004,12.210971 -9.92817,22.142931 -22.13535,22.142931 z"
     id="path2"
     inkscape:connector-curvature="0"
     style="stroke-width:1" /><path
     style="color:#000000;font-style:normal;font-variant:normal;font-weight:normal;font-stretch:normal;font-size:medium;line-height:normal;font-family:sans-serif;font-variant-ligatures:normal;font-variant-position:normal;font-variant-caps:normal;font-variant-numeric:normal;font-variant-alternates:normal;font-feature-settings:normal;text-indent:0;text-align:start;text-decoration:none;text-decoration-line:none;text-decoration-style:solid;text-decoration-color:#000000;letter-spacing:normal;word-spacing:normal;text-transform:none;writing-mode:lr-tb;direction:ltr;text-orientation:mixed;dominant-baseline:auto;baseline-shift:baseline;text-anchor:start;white-space:normal;shape-padding:0;clip-rule:nonzero;display:inline;overflow:visible;visibility:visible;opacity:1;isolation:auto;mix-blend-mode:normal;color-interpolation:sRGB;color-interpolation-filters:linearRGB;solid-color:#000000;solid-opacity:1;vector-effect:none;fill:#ffffff;fill-opacity:1;fill-rule:nonzero;stroke:#0a0000;stroke-width:5;stroke-linecap:butt;stroke-linejoin:miter;stroke-miterlimit:4;stroke-dasharray:none;stroke-dashoffset:0;stroke-opacity:1;color-rendering:auto;image-rendering:auto;shape-rendering:auto;text-rendering:auto;enable-background:accumulate"
     d="M 157.72166,-35.88887 C 127.89347,-35.82168 98.093143,-24.414847 75.440407,-1.6896506 30.137151,43.758517 30.265929,117.59095 75.651345,162.97637 121.03676,208.36178 194.8692,208.49056 240.31736,163.18731 285.76775,117.88183 285.94151,43.990985 240.6826,-1.5470725 l -0.0117,-0.011719 -0.01,-0.011719 -0.47461,-0.4726563 -0.01,-0.011719 C 217.40771,-24.684342 187.54985,-35.95606 157.72166,-35.88887 Z m 0.0449,19.876954 c 21.73737,-0.04899 43.48179,7.2430985 61.30274,21.8457033 L 82.907204,141.15996 C 52.195126,103.22876 54.386057,47.762515 89.606423,12.42949 108.44536,-6.4697031 133.09331,-15.956313 157.76658,-16.011916 Z m 75.41406,36.017578 c 30.78755,38.039015 28.42533,93.720788 -6.98242,129.015628 -35.47725,35.36414 -91.25763,37.43933 -129.199219,6.33203 z"
     id="path865"
     inkscape:connector-curvature="0" /></svg>